<svg width="15" height="15" viewBox="0 0 15 15" fill="none" xmlns="http://www.w3.org/2000/svg">
<path d="M5.65501 4.44141C5.59636 4.50481 5.55819 4.54572 5.52954 4.57641C5.58273 4.51913 5.65501 4.44141 5.65501 4.44141Z" fill="#7B7B7B"/>
<path d="M15 7.5C15 3.35794 11.642 0 7.5 0C3.35794 0 0 3.35794 0 7.5C0 11.642 3.35794 15 7.5 15C11.642 15 15 11.642 15 7.5ZM0.681814 7.5C0.681814 3.73431 3.73431 0.681814 7.5 0.681814C11.2657 0.681814 14.3182 3.73431 14.3182 7.5C14.3182 11.2657 11.2657 14.3182 7.5 14.3182C3.73431 14.3182 0.681814 11.2657 0.681814 7.5Z" fill="#7B7B7B"/>
<path d="M7.85156 12H7.14844V5.66016H7.85156V12ZM7.02539 3.82617C7.02539 3.69336 7.06836 3.58203 7.1543 3.49219C7.24023 3.39844 7.35742 3.35156 7.50586 3.35156C7.6543 3.35156 7.77148 3.39844 7.85742 3.49219C7.94727 3.58203 7.99219 3.69336 7.99219 3.82617C7.99219 3.95898 7.94727 4.07031 7.85742 4.16016C7.77148 4.25 7.6543 4.29492 7.50586 4.29492C7.35742 4.29492 7.24023 4.25 7.1543 4.16016C7.06836 4.07031 7.02539 3.95898 7.02539 3.82617Z" fill="#7B7B7B"/>
</svg>
