<svg width="42" height="41" viewBox="0 0 42 41" fill="none" xmlns="http://www.w3.org/2000/svg">
<rect x="0.99939" y="1.05884" width="40" height="39" rx="7.5" stroke="#9E9E9E"/>
<path d="M34.5536 15.5433L34.7787 14.7796L31.3861 13.7827L30.3973 17.2155L31.1369 17.4325L31.8443 15.0208L32.3187 16.2186C32.879 17.6365 33.1655 19.1477 33.1628 20.6723C33.1735 23.8359 31.9298 26.8747 29.7041 29.123C27.4784 31.3712 24.4524 32.6456 21.2888 32.6668C19.2854 32.666 17.3153 32.1541 15.5649 31.1796L15.163 31.8549C17.5643 33.2007 20.3414 33.7197 23.0667 33.3318C25.792 32.9439 28.3141 31.6708 30.2445 29.7084C32.002 27.9166 33.1994 25.6516 33.6905 23.1903C34.1816 20.729 33.9452 18.1779 33.01 15.8488L32.6563 14.9806L34.5536 15.5433Z" fill="#979797"/>
<path d="M27.0289 10.1169L27.4308 9.41753C25.0353 8.06299 22.2606 7.53455 19.5349 7.91377C16.8092 8.29298 14.284 9.55877 12.3493 11.5158C10.5734 13.2957 9.35815 15.5571 8.85379 18.0204C8.34943 20.4836 8.57805 23.0407 9.51141 25.3754L9.84906 26.2275H9.76866L7.95984 25.6567L7.73474 26.4205L11.1193 27.4334L12.1242 24.0087L11.3845 23.7836L10.6691 26.1954V26.0909L10.1947 25.0136C9.34853 22.8274 9.15253 20.4432 9.63036 18.1482C10.1082 15.8532 11.2395 13.7453 12.8879 12.0785C13.9826 10.976 15.2854 10.102 16.7206 9.50718C18.1559 8.91237 19.695 8.60863 21.2487 8.6136C23.2721 8.61369 25.2618 9.1312 27.0289 10.1169Z" fill="#979797"/>
<path d="M25.3326 20.8894C25.2992 20.8883 25.2659 20.894 25.2347 20.906C25.2036 20.918 25.1751 20.9362 25.1511 20.9595C25.1271 20.9827 25.1081 21.0106 25.095 21.0413C25.082 21.0721 25.0753 21.1052 25.0753 21.1386V24.6919H17.4381V15.0449H25.0753V18.6143C25.086 18.6737 25.1172 18.7275 25.1635 18.7663C25.2097 18.805 25.2682 18.8262 25.3286 18.8262C25.3889 18.8262 25.4474 18.805 25.4937 18.7663C25.54 18.7275 25.5712 18.6737 25.5818 18.6143V14.1204C25.5818 13.8233 25.4643 13.5382 25.255 13.3274C25.0457 13.1165 24.7615 12.997 24.4644 12.9949H18.033C17.7359 12.997 17.4517 13.1165 17.2423 13.3274C17.033 13.5382 16.9155 13.8233 16.9155 14.1204V27.1519C16.9155 27.4483 17.0333 27.7325 17.2428 27.9421C17.4524 28.1517 17.7366 28.2694 18.033 28.2694H24.4644C24.7607 28.2694 25.0449 28.1517 25.2545 27.9421C25.4641 27.7325 25.5818 27.4483 25.5818 27.1519V21.1386C25.5818 21.0725 25.5555 21.0091 25.5088 20.9624C25.4621 20.9156 25.3987 20.8894 25.3326 20.8894ZM18.0491 13.5013H24.4804C24.6432 13.5035 24.7986 13.5696 24.913 13.6855C25.0273 13.8013 25.0914 13.9576 25.0914 14.1204V14.5223H17.4542V14.1204C17.454 13.9603 17.5159 13.8064 17.6269 13.691C17.7378 13.5755 17.8891 13.5076 18.0491 13.5013ZM24.4804 27.7629H18.0491C17.9688 27.7629 17.8894 27.7471 17.8152 27.7164C17.7411 27.6857 17.6738 27.6407 17.617 27.584C17.5603 27.5272 17.5153 27.4599 17.4846 27.3857C17.4539 27.3116 17.4381 27.2322 17.4381 27.1519V25.2145H25.0753V27.1519C25.0753 27.2322 25.0595 27.3116 25.0288 27.3857C24.9981 27.4599 24.9531 27.5272 24.8964 27.584C24.8396 27.6407 24.7723 27.6857 24.6982 27.7164C24.624 27.7471 24.5446 27.7629 24.4644 27.7629H24.4804Z" fill="#979797"/>
<path d="M21.2567 25.5923C21.0783 25.5923 20.9039 25.6453 20.7556 25.7446C20.6074 25.8439 20.492 25.985 20.4241 26.15C20.3562 26.315 20.3388 26.4964 20.3742 26.6713C20.4096 26.8462 20.4962 27.0066 20.6229 27.1322C20.7496 27.2578 20.9108 27.3429 21.086 27.3767C21.2612 27.4106 21.4425 27.3916 21.6069 27.3222C21.7712 27.2528 21.9113 27.1362 22.0093 26.987C22.1072 26.8379 22.1587 26.6631 22.1571 26.4846C22.155 26.2472 22.0592 26.0203 21.8905 25.8532C21.7219 25.686 21.4941 25.5923 21.2567 25.5923ZM21.2567 27.1197C21.1307 27.1213 21.0072 27.0854 20.9017 27.0166C20.7962 26.9478 20.7135 26.8492 20.6642 26.7333C20.6149 26.6174 20.6012 26.4895 20.6248 26.3657C20.6484 26.242 20.7082 26.1281 20.7967 26.0385C20.8852 25.9488 20.9983 25.8876 21.1218 25.8624C21.2452 25.8372 21.3733 25.8493 21.4898 25.8972C21.6063 25.945 21.706 26.0264 21.7761 26.131C21.8463 26.2356 21.8837 26.3587 21.8837 26.4846C21.8816 26.6495 21.8146 26.807 21.6973 26.9228C21.5799 27.0387 21.4216 27.1037 21.2567 27.1037V27.1197Z" fill="#979797"/>
<path d="M21.7631 13.8794H20.7502C20.7322 13.8794 20.7145 13.8829 20.6979 13.8898C20.6813 13.8967 20.6662 13.9067 20.6536 13.9194C20.6409 13.9321 20.6308 13.9472 20.6239 13.9638C20.6171 13.9803 20.6135 13.9981 20.6135 14.0161C20.6135 14.0337 20.6171 14.0511 20.624 14.0672C20.631 14.0834 20.6412 14.0979 20.654 14.11C20.6668 14.122 20.682 14.1313 20.6985 14.1373C20.715 14.1433 20.7326 14.1458 20.7502 14.1447H21.7631C21.798 14.1447 21.8316 14.1315 21.857 14.1075C21.8824 14.0836 21.8977 14.0509 21.8998 14.0161C21.8979 13.9804 21.8829 13.9468 21.8576 13.9216C21.8324 13.8963 21.7988 13.8813 21.7631 13.8794Z" fill="#979797"/>
</svg>
